<svg xmlns="http://www.w3.org/2000/svg" data-name="Layer 2" viewBox="0 0 64 64"><path d="M43.1 35.14a131.59 131.59 0 0 1-8.81 11.8 3 3 0 0 1-1.29.87V60.7l12.13-4.33zM29.71 46.93a129.27 129.27 0 0 1-8.81-11.79l-2 21.23L31 60.7V47.81a2.93 2.93 0 0 1-1.29-.88zm17.43 9.54 12.52 4.47A1 1 0 0 0 61 59.81l-4-21a1 1 0 0 0-.6-.73l-11.46-4.77zm-42.8 4.47 12.52-4.47 2.2-23.16-11.44 4.77a1 1 0 0 0-.6.73l-4 21a1 1 0 0 0 1.32 1.13zm28.42-15.29C33.39 44.91 48 27.55 48 19a16 16 0 0 0-32 0c0 8.55 14.61 25.91 15.24 26.65a1 1 0 0 0 1.52 0zM25 19a7 7 0 1 1 7 7 7 7 0 0 1-7-7z"/></svg>